<?xml version="1.0" encoding="UTF-8"?> <svg xmlns="http://www.w3.org/2000/svg" width="100" height="100" viewBox="0 0 100 100" fill="none"> <path d="M81.9987 14H18.0013C15.7957 14 14 15.795 14 18.0013V67.332C14 69.5383 15.7957 71.3333 18.0013 71.3333H65.4L77.9803 83.914C78.862 84.795 80.0337 85.28 81.2797 85.28C82.527 85.28 83.699 84.795 84.579 83.9133C85.4607 83.0317 85.9463 81.86 85.9463 80.6133C85.9463 79.3667 85.4607 78.1947 84.579 77.3133V77.314L78.599 71.3333H81.9987C84.2043 71.3333 86 69.5383 86 67.332V18.0013C86 15.795 84.2043 14 81.9987 14ZM83.28 80.6133C83.28 81.148 83.0717 81.6497 82.694 82.028C81.94 82.7833 80.6223 82.7847 79.866 82.028L57.987 60.149L60.815 57.3207L82.694 79.199V79.1997C83.0717 79.5767 83.28 80.0793 83.28 80.6133ZM56.3863 57.9787L53.3163 52.6693L58.6403 55.7247L56.3863 57.9787ZM81.9987 68.6667H75.9323L61.758 54.4923C61.6747 54.409 61.581 54.3373 61.4793 54.2787L50.344 47.89C49.8193 47.59 49.1603 47.6757 48.736 48.105C48.3103 48.532 48.2243 49.1923 48.5263 49.7137L54.947 60.8167C55.0057 60.917 55.0773 61.01 55.1593 61.092L62.7333 68.6667H18.0013C17.2657 68.6667 16.6667 68.0677 16.6667 67.332V18.0013C16.6667 17.2657 17.2657 16.6667 18.0013 16.6667H81.9987C82.7343 16.6667 83.3333 17.2657 83.3333 18.0013V20.6667H44.6667C43.9297 20.6667 43.3333 21.2637 43.3333 22C43.3333 22.7363 43.9297 23.3333 44.6667 23.3333H83.3333V67.332C83.3333 68.0677 82.7343 68.6667 81.9987 68.6667Z" fill="#058DD9"></path> <path d="M20 22C21.1046 22 22 21.1046 22 20C22 18.8955 21.1046 18 20 18C18.8954 18 18 18.8955 18 20C18 21.1046 18.8954 22 20 22Z" fill="#058DD9"></path> <path d="M25.3333 22C26.4379 22 27.3333 21.1046 27.3333 20C27.3333 18.8955 26.4379 18 25.3333 18C24.2288 18 23.3333 18.8955 23.3333 20C23.3333 21.1046 24.2288 22 25.3333 22Z" fill="#058DD9"></path> <path d="M30.6667 22C31.7712 22 32.6667 21.1046 32.6667 20C32.6667 18.8955 31.7712 18 30.6667 18C29.5621 18 28.6667 18.8955 28.6667 20C28.6667 21.1046 29.5621 22 30.6667 22Z" fill="#058DD9"></path> <path d="M33.3333 76.6667C30.7603 76.6667 28.6667 78.7603 28.6667 81.3333C28.6667 83.9063 30.7603 86 33.3333 86C35.9063 86 38 83.9063 38 81.3333C38 78.7603 35.9063 76.6667 33.3333 76.6667ZM33.3333 83.3333C32.2303 83.3333 31.3333 82.4363 31.3333 81.3333C31.3333 80.2303 32.2303 79.3333 33.3333 79.3333C34.4363 79.3333 35.3333 80.2303 35.3333 81.3333C35.3333 82.4363 34.4363 83.3333 33.3333 83.3333Z" fill="#4AD3EA"></path> <path d="M54.6667 74.49C53.8327 74.49 53.1567 75.166 53.1567 76C53.1567 76.8337 53.8327 77.51 54.6667 77.51C55.5003 77.51 56.1767 76.834 56.1767 76C56.1767 75.166 55.5003 74.49 54.6667 74.49Z" fill="#4AD3EA"></path> <path d="M44.8647 46.0613C44.1407 45.935 43.4467 46.4103 43.3153 47.135C43.0353 48.67 42.5133 50.2983 42.0887 51.0483C41.9753 50.8647 41.831 50.594 41.6617 50.1993C40.965 48.575 40.0433 47.8453 38.961 47.9937C38.483 48.0633 37.5117 48.204 36.547 50.8673C36.3257 50.5067 35.9377 50.2607 35.4923 50.2327C34.8517 50.195 34.263 50.6213 34.112 51.2523C32.7917 56.7563 30.4077 61.8297 29.1107 61.897C29.1017 61.9127 28.0807 61.9953 26.6093 57.8233C26.548 57.65 26.4897 57.479 26.4337 57.3097C29.0223 55.4953 32.021 52.5407 32.5417 48.3767C32.802 46.2967 32.069 44.5773 30.582 43.7777C29.0623 42.9613 27.0767 43.2927 25.5233 44.624C24.4857 45.5127 21.5377 48.7887 23.3177 56.1173C22.2747 56.7123 21.5273 57.0203 21.5027 57.03C20.8203 57.3047 20.4897 58.0807 20.763 58.7637C21.0377 59.4447 21.8123 59.7753 22.4947 59.5053C22.5883 59.4677 23.2107 59.2137 24.104 58.7377C24.996 61.261 26.4763 64.5643 29.0857 64.564C29.139 64.564 29.1937 64.5627 29.2483 64.56C31.6193 64.437 33.4867 61.2617 34.7833 58.019L34.92 59.252C34.9957 59.9257 35.5633 60.4363 36.2417 60.4383H36.2457C36.9213 60.4383 37.4903 59.9323 37.57 59.2607C37.9477 56.0477 38.6417 52.8083 39.2313 51.2983C39.5647 52.0757 40.5347 54.1923 42.3263 53.999C44.394 53.7653 45.4317 50.3967 45.937 47.6117C46.0703 46.8867 45.59 46.1927 44.8647 46.0613ZM27.2577 46.6483C27.798 46.1853 28.3383 46.0013 28.7707 46.0013C28.9843 46.0013 29.1717 46.047 29.319 46.1257C29.8047 46.3873 30.0157 47.0873 29.8957 48.0457C29.5453 50.84 27.621 53.0123 25.703 54.521C24.935 50.4323 25.8907 47.8197 27.2577 46.6483Z" fill="#4AD3EA"></path> <path d="M40.6667 34V27.3333C40.6667 26.597 40.0703 26 39.3333 26H20.6667C19.9297 26 19.3333 26.597 19.3333 27.3333V34C19.3333 34.7363 19.9297 35.3333 20.6667 35.3333H39.3333C40.0703 35.3333 40.6667 34.7363 40.6667 34ZM38 32.6667H22V28.6667H38V32.6667Z" fill="#058DD9"></path> <path d="M63.3333 26H44.6667C43.9297 26 43.3333 26.597 43.3333 27.3333V38C43.3333 38.7363 43.9297 39.3333 44.6667 39.3333H63.3333C64.0703 39.3333 64.6667 38.7363 64.6667 38V27.3333C64.6667 26.597 64.0703 26 63.3333 26ZM62 36.6667H46V28.6667H62V36.6667Z" fill="#058DD9"></path> <path d="M68.6667 30H76.6667C77.4037 30 78 29.403 78 28.6667C78 27.9303 77.4037 27.3333 76.6667 27.3333H68.6667C67.9297 27.3333 67.3333 27.9303 67.3333 28.6667C67.3333 29.403 67.9297 30 68.6667 30Z" fill="#058DD9"></path> <path d="M68.6667 34H74C74.737 34 75.3334 33.403 75.3334 32.6667C75.3334 31.9304 74.737 31.3334 74 31.3334H68.6667C67.9297 31.3334 67.3333 31.9304 67.3333 32.6667C67.3333 33.403 67.9297 34 68.6667 34Z" fill="#058DD9"></path> <path d="M79.3333 35.3333H68.6667C67.9297 35.3333 67.3333 35.9303 67.3333 36.6666C67.3333 37.403 67.9297 38 68.6667 38H79.3333C80.0703 38 80.6667 37.403 80.6667 36.6666C80.6667 35.9303 80.0703 35.3333 79.3333 35.3333Z" fill="#058DD9"></path> </svg> 