<?xml version="1.0" encoding="UTF-8"?> <svg xmlns="http://www.w3.org/2000/svg" width="100" height="100" viewBox="0 0 100 100" fill="none"> <path d="M24.3531 35.2906C23.916 35.7276 23.6183 36.2844 23.4976 36.8907C23.377 37.4969 23.4388 38.1253 23.6753 38.6963C23.9118 39.2674 24.3123 39.7555 24.8262 40.0989C25.3402 40.4424 25.9444 40.6257 26.5625 40.6257C27.1806 40.6257 27.7848 40.4424 28.2988 40.0989C28.8127 39.7555 29.2132 39.2674 29.4497 38.6963C29.6862 38.1253 29.748 37.4969 29.6274 36.8907C29.5067 36.2844 29.209 35.7276 28.7719 35.2906C28.1858 34.7048 27.3911 34.3757 26.5625 34.3757C25.7339 34.3757 24.9391 34.7048 24.3531 35.2906Z" fill="#058DD9"></path> <path d="M33.1906 30.8703C31.4326 29.1128 29.0484 28.1254 26.5625 28.1254C24.0766 28.1254 21.6925 29.1128 19.9344 30.8703L22.1438 33.0797C23.335 31.9448 24.9172 31.3118 26.5625 31.3118C28.2078 31.3118 29.79 31.9448 30.9813 33.0797L33.1906 30.8703Z" fill="#058DD9"></path> <path d="M26.5625 25C28.2047 24.9955 29.8315 25.3167 31.3487 25.9451C32.8659 26.5735 34.2435 27.4966 35.4016 28.6609L37.6109 26.4515C34.6807 23.5213 30.7065 21.8752 26.5625 21.8752C22.4185 21.8752 18.4443 23.5213 15.5141 26.4515L17.7234 28.6609C18.8815 27.4966 20.259 26.5735 21.7763 25.9451C23.2935 25.3167 24.9203 24.9955 26.5625 25Z" fill="#058DD9"></path> <path d="M93.75 23.7188V10.9375C93.75 8.8655 92.9269 6.87836 91.4618 5.41323C89.9966 3.9481 88.0095 3.125 85.9375 3.125H59.375C57.303 3.125 55.3159 3.9481 53.8507 5.41323C52.3856 6.87836 51.5625 8.8655 51.5625 10.9375V14.0625C51.5625 14.4769 51.7271 14.8743 52.0201 15.1674C52.3132 15.4604 52.7106 15.625 53.125 15.625H59.375V23.7188C58.4645 24.0431 57.676 24.6401 57.1168 25.4285C56.5576 26.2169 56.255 27.1584 56.25 28.125V79.6875C56.2537 80.9296 56.7488 82.1197 57.627 82.998C58.5053 83.8762 59.6954 84.3713 60.9375 84.375V95.3125C60.9342 95.6019 61.0132 95.8863 61.1654 96.1325C61.3175 96.3788 61.5365 96.5766 61.7969 96.7031C62.0563 96.8347 62.3474 96.8913 62.6372 96.8665C62.9271 96.8416 63.2042 96.7364 63.4375 96.5625L68.75 92.5781L74.0625 96.5625C74.3344 96.7625 74.6624 96.8718 75 96.875C75.2453 96.8795 75.4876 96.8202 75.7031 96.7031L81.25 93.9375L86.7969 96.7031C87.0411 96.8313 87.3158 96.8904 87.5912 96.8738C87.8666 96.8573 88.1322 96.7659 88.3594 96.6094L93.0469 93.4844C93.2618 93.3428 93.4385 93.1504 93.5611 92.9241C93.6838 92.6979 93.7487 92.4449 93.75 92.1875V84.0938C94.6605 83.7694 95.449 83.1724 96.0082 82.384C96.5674 81.5956 96.87 80.6541 96.875 79.6875V28.125C96.87 27.1584 96.5674 26.2169 96.0082 25.4285C95.449 24.6401 94.6605 24.0431 93.75 23.7188ZM62.5 6.25H85.9375C87.1796 6.25371 88.3697 6.74876 89.248 7.62704C90.1262 8.50531 90.6213 9.69544 90.625 10.9375V23.4375H62.5V6.25ZM54.6875 12.5V10.9375C54.6912 9.69544 55.1863 8.50531 56.0645 7.62704C56.9428 6.74876 58.1329 6.25371 59.375 6.25V12.5H54.6875ZM90.625 91.3438L87.3906 93.5156L81.9531 90.7969C81.736 90.6839 81.4948 90.6249 81.25 90.6249C81.0052 90.6249 80.764 90.6839 80.5469 90.7969L75.1719 93.4844L69.6875 89.375C69.4181 89.1697 69.0887 89.0585 68.75 89.0585C68.4113 89.0585 68.0819 89.1697 67.8125 89.375L64.0625 92.1875V84.375H90.625V91.3438ZM93.75 79.6875C93.75 80.1019 93.5854 80.4993 93.2924 80.7924C92.9993 81.0854 92.6019 81.25 92.1875 81.25H60.9375C60.5231 81.25 60.1257 81.0854 59.8326 80.7924C59.5396 80.4993 59.375 80.1019 59.375 79.6875V28.125C59.375 27.7106 59.5396 27.3132 59.8326 27.0201C60.1257 26.7271 60.5231 26.5625 60.9375 26.5625H92.1875C92.6019 26.5625 92.9993 26.7271 93.2924 27.0201C93.5854 27.3132 93.75 27.7106 93.75 28.125V79.6875Z" fill="#058DD9"></path> <path d="M89.0625 28.125H64.0625C63.2345 28.1275 62.441 28.4575 61.8555 29.043C61.27 29.6285 60.94 30.422 60.9375 31.25V48.4375C60.94 49.2655 61.27 50.059 61.8555 50.6445C62.441 51.23 63.2345 51.56 64.0625 51.5625H89.0625C89.8905 51.56 90.684 51.23 91.2695 50.6445C91.855 50.059 92.185 49.2655 92.1875 48.4375V31.25C92.185 30.422 91.855 29.6285 91.2695 29.043C90.684 28.4575 89.8905 28.1275 89.0625 28.125ZM89.0625 48.4375H64.0625V31.25H89.0625V48.4375Z" fill="#058DD9"></path> <path d="M76.5625 60.9375C78.2884 60.9375 79.6875 59.5384 79.6875 57.8125C79.6875 56.0866 78.2884 54.6875 76.5625 54.6875C74.8366 54.6875 73.4375 56.0866 73.4375 57.8125C73.4375 59.5384 74.8366 60.9375 76.5625 60.9375Z" fill="#058DD9"></path> <path d="M67.1875 60.9375C68.9134 60.9375 70.3125 59.5384 70.3125 57.8125C70.3125 56.0866 68.9134 54.6875 67.1875 54.6875C65.4616 54.6875 64.0625 56.0866 64.0625 57.8125C64.0625 59.5384 65.4616 60.9375 67.1875 60.9375Z" fill="#058DD9"></path> <path d="M85.9375 60.9375C87.6634 60.9375 89.0625 59.5384 89.0625 57.8125C89.0625 56.0866 87.6634 54.6875 85.9375 54.6875C84.2116 54.6875 82.8125 56.0866 82.8125 57.8125C82.8125 59.5384 84.2116 60.9375 85.9375 60.9375Z" fill="#058DD9"></path> <path d="M76.5625 68.75C78.2884 68.75 79.6875 67.3509 79.6875 65.625C79.6875 63.8991 78.2884 62.5 76.5625 62.5C74.8366 62.5 73.4375 63.8991 73.4375 65.625C73.4375 67.3509 74.8366 68.75 76.5625 68.75Z" fill="#058DD9"></path> <path d="M67.1875 68.75C68.9134 68.75 70.3125 67.3509 70.3125 65.625C70.3125 63.8991 68.9134 62.5 67.1875 62.5C65.4616 62.5 64.0625 63.8991 64.0625 65.625C64.0625 67.3509 65.4616 68.75 67.1875 68.75Z" fill="#058DD9"></path> <path d="M85.9375 68.75C87.6634 68.75 89.0625 67.3509 89.0625 65.625C89.0625 63.8991 87.6634 62.5 85.9375 62.5C84.2116 62.5 82.8125 63.8991 82.8125 65.625C82.8125 67.3509 84.2116 68.75 85.9375 68.75Z" fill="#058DD9"></path> <path d="M76.5625 76.5625C78.2884 76.5625 79.6875 75.1634 79.6875 73.4375C79.6875 71.7116 78.2884 70.3125 76.5625 70.3125C74.8366 70.3125 73.4375 71.7116 73.4375 73.4375C73.4375 75.1634 74.8366 76.5625 76.5625 76.5625Z" fill="#058DD9"></path> <path d="M67.1875 76.5625C68.9134 76.5625 70.3125 75.1634 70.3125 73.4375C70.3125 71.7116 68.9134 70.3125 67.1875 70.3125C65.4616 70.3125 64.0625 71.7116 64.0625 73.4375C64.0625 75.1634 65.4616 76.5625 67.1875 76.5625Z" fill="#058DD9"></path> <path d="M85.9375 76.5625C87.6634 76.5625 89.0625 75.1634 89.0625 73.4375C89.0625 71.7116 87.6634 70.3125 85.9375 70.3125C84.2116 70.3125 82.8125 71.7116 82.8125 73.4375C82.8125 75.1634 84.2116 76.5625 85.9375 76.5625Z" fill="#058DD9"></path> <path d="M67.1875 34.375H73.4375V37.5H67.1875V34.375Z" fill="#058DD9"></path> <path d="M76.5625 34.375H81.25V37.5H76.5625V34.375Z" fill="#058DD9"></path> <path d="M67.1875 42.1875H85.9375V45.3125H67.1875V42.1875Z" fill="#058DD9"></path> <path d="M65.625 9.375H70.3125V12.5H65.625V9.375Z" fill="#058DD9"></path> <path d="M73.4375 9.375H87.5V12.5H73.4375V9.375Z" fill="#058DD9"></path> <path d="M65.625 15.625H73.4375V18.75H65.625V15.625Z" fill="#058DD9"></path> <path d="M76.5625 15.625H79.6875V18.75H76.5625V15.625Z" fill="#058DD9"></path> <path d="M82.8125 15.625H87.5V18.75H82.8125V15.625Z" fill="#058DD9"></path> <path d="M48.4375 45.3125H7.8125C6.57044 45.3162 5.38031 45.8113 4.50203 46.6895C3.62376 47.5678 3.12871 48.7579 3.125 50V73.4375C3.12871 74.6796 3.62376 75.8697 4.50203 76.748C5.38031 77.6262 6.57044 78.1213 7.8125 78.125H48.4375C49.6796 78.1213 50.8697 77.6262 51.748 76.748C52.6262 75.8697 53.1213 74.6796 53.125 73.4375V50C53.1213 48.7579 52.6262 47.5678 51.748 46.6895C50.8697 45.8113 49.6796 45.3162 48.4375 45.3125ZM50 73.4375C50 73.8519 49.8354 74.2493 49.5424 74.5424C49.2493 74.8354 48.8519 75 48.4375 75H7.8125C7.3981 75 7.00067 74.8354 6.70765 74.5424C6.41462 74.2493 6.25 73.8519 6.25 73.4375V59.375H50V73.4375ZM50 56.25H6.25V54.6875H50V56.25ZM50 51.5625H6.25V50C6.25 49.5856 6.41462 49.1882 6.70765 48.8951C7.00067 48.6021 7.3981 48.4375 7.8125 48.4375H48.4375C48.8519 48.4375 49.2493 48.6021 49.5424 48.8951C49.8354 49.1882 50 49.5856 50 50V51.5625Z" fill="#4AD3EA"></path> <path d="M44.5312 65.625H38.2812C37.2452 65.625 36.2517 66.0365 35.5191 66.7691C34.7866 67.5017 34.375 68.4952 34.375 69.5312C34.375 70.5673 34.7866 71.5608 35.5191 72.2934C36.2517 73.026 37.2452 73.4375 38.2812 73.4375H44.5312C45.5673 73.4375 46.5608 73.026 47.2934 72.2934C48.0259 71.5608 48.4375 70.5673 48.4375 69.5312C48.4375 68.4952 48.0259 67.5017 47.2934 66.7691C46.5608 66.0365 45.5673 65.625 44.5312 65.625ZM44.5312 70.3125H38.2812C38.074 70.3125 37.8753 70.2302 37.7288 70.0837C37.5823 69.9372 37.5 69.7385 37.5 69.5312C37.5 69.324 37.5823 69.1253 37.7288 68.9788C37.8753 68.8323 38.074 68.75 38.2812 68.75H44.5312C44.7385 68.75 44.9372 68.8323 45.0837 68.9788C45.2302 69.1253 45.3125 69.324 45.3125 69.5312C45.3125 69.7385 45.2302 69.9372 45.0837 70.0837C44.9372 70.2302 44.7385 70.3125 44.5312 70.3125Z" fill="#4AD3EA"></path> </svg> 