<?xml version="1.0" encoding="UTF-8"?> <svg xmlns="http://www.w3.org/2000/svg" width="100" height="100" viewBox="0 0 100 100" fill="none"> <path d="M94.6322 17.388C94.4061 14.8518 92.3153 12.9392 89.7689 12.9392H77.1366V11.0775H77.3825C79.1863 11.0775 80.6538 9.60999 80.6538 7.80635V3.27117C80.6538 1.46752 79.1863 0 77.3825 0H40.2022C39.3933 0 38.7374 0.65564 38.7374 1.46479C38.7374 2.27394 39.3933 2.92958 40.2022 2.92958H77.3825C77.5709 2.92958 77.7243 3.0827 77.7243 3.27117V7.80635C77.7243 7.99482 77.5709 8.14794 77.3825 8.14794H22.6177C22.4292 8.14794 22.2759 7.99482 22.2759 7.80635V3.27117C22.2759 3.0827 22.4292 2.92958 22.6177 2.92958H33.3343C34.1433 2.92958 34.7991 2.27394 34.7991 1.46479C34.7991 0.65564 34.1433 0 33.3343 0H22.6177C20.8139 0 19.3463 1.46752 19.3463 3.27117V7.80635C19.3463 9.60999 20.8139 11.0775 22.6177 11.0775H22.8636V12.9392H10.2313C7.68487 12.9392 5.59413 14.8518 5.36796 17.388C5.33828 17.7197 4.6801 25.6145 7.91298 34.3583C10.8709 42.3584 17.657 52.5732 33.2052 56.5821C35.7082 58.5597 38.5663 60.1073 41.6672 61.1102L42.4045 62.3272C43.798 64.6277 44.5345 67.3473 44.5345 70.1919C44.5345 71.9296 44.2575 73.6271 43.7115 75.237L42.6877 78.2541H39.2813C35.7858 78.2541 32.9417 81.0982 32.9417 84.5939V87.6624H27.6107C26.1063 87.6624 24.8823 88.8865 24.8823 90.391V97.2716C24.8823 98.776 26.1063 100 27.6107 100H72.3897C73.8941 100 75.1181 98.776 75.1181 97.2716V90.391C75.1181 88.8865 73.8941 87.6624 72.3897 87.6624H67.0586V84.5939C67.0586 81.0982 64.2146 78.2541 60.719 78.2541H57.3127L56.2889 75.237C55.7427 73.6273 55.4657 71.9297 55.4657 70.1919C55.4657 67.3475 56.2022 64.6279 57.5957 62.3272L58.333 61.1102C61.4338 60.1073 64.2918 58.5599 66.795 56.5821C82.3432 52.5732 89.1293 42.3584 92.0872 34.3583C95.3201 25.6145 94.6619 17.7198 94.6322 17.388ZM23.406 40.6926C20.6748 38.1357 18.5825 34.9637 17.1515 31.1832C16.1572 28.5564 15.5065 25.7043 15.2168 22.7044H22.8636V35.2844C22.8636 37.1359 23.0509 38.9445 23.406 40.6926ZM10.6609 33.3425C7.6542 25.2104 8.25887 17.9532 8.28602 17.6484C8.37644 16.634 9.21274 15.8689 10.2313 15.8689H22.8636V19.775H15.0955C14.3042 19.775 13.5448 20.1104 13.012 20.6951C12.4786 21.2807 12.215 22.0689 12.2886 22.8579C12.597 26.1631 13.3112 29.3132 14.4116 32.2205C16.5847 37.9621 20.1024 42.4453 24.9174 45.637C25.8649 47.9236 27.1162 50.0536 28.6212 51.9764C18.0087 47.5775 13.0106 39.6974 10.6609 33.3425ZM72.1885 90.5919V97.0704H27.8117V90.5919H72.1885ZM60.719 81.1837C62.5992 81.1837 64.1291 82.7135 64.1291 84.5939V87.6624H35.8713V84.5939C35.8713 82.7135 37.4011 81.1837 39.2813 81.1837H60.719ZM53.5148 76.1784L54.2191 78.2541H45.7809L46.4854 76.1782C47.1346 74.2644 47.4639 72.2504 47.4639 70.1919C47.4639 67.3106 46.8199 64.5289 45.5954 62.0616C47.0295 62.2967 48.5003 62.4209 50.0001 62.4209C51.4996 62.4209 52.9707 62.2967 54.4046 62.0616C53.1801 64.5289 52.5361 67.3106 52.5361 70.1919C52.5363 72.2506 52.8654 74.2646 53.5148 76.1784ZM50.0001 59.4911C36.6523 59.4911 25.7932 48.632 25.7932 35.2844V11.0775H74.207V35.2844C74.207 48.6322 63.3478 59.4911 50.0001 59.4911ZM89.3394 33.3425C86.9897 39.6975 81.9915 47.5785 71.3784 51.9774C72.8862 50.0511 74.1394 47.917 75.0876 45.6256C79.2221 42.8802 82.4061 39.1827 84.5986 34.5528C84.9449 33.8218 84.6328 32.9482 83.9018 32.6021C83.1709 32.256 82.2975 32.5677 81.9511 33.299C80.5937 36.1655 78.8035 38.6351 76.593 40.7016C76.9493 38.9507 77.137 37.1392 77.137 35.2846V22.7046H84.7838C84.6381 24.2118 84.3959 25.7065 84.0637 27.1494C83.8822 27.9378 84.3742 28.7241 85.1627 28.9054C85.9503 29.0878 86.7372 28.595 86.9186 27.8066C87.2886 26.1994 87.5553 24.5344 87.712 22.8579C87.7856 22.0689 87.5219 21.2807 86.9886 20.6951C86.4558 20.1104 85.6964 19.775 84.905 19.775H77.137V15.8689H89.7693C90.7878 15.8689 91.6241 16.634 91.7146 17.6486C91.7413 17.9532 92.346 25.2104 89.3394 33.3425Z" fill="#058DD9"></path> <path d="M59.6322 28.4487L55.4319 27.8384C55.2489 27.8116 55.0909 27.6968 55.0091 27.5312L53.1306 23.7251C52.5383 22.5247 51.3387 21.7791 50.0001 21.7791C48.6615 21.7791 47.4619 22.5247 46.8695 23.7251L44.9911 27.5312C44.9093 27.697 44.7513 27.8118 44.5683 27.8384L40.368 28.4487C39.0433 28.6411 37.9634 29.5514 37.5498 30.8246C37.1361 32.0978 37.4746 33.4691 38.4331 34.4036L41.4725 37.366C41.6049 37.4951 41.6652 37.6808 41.634 37.8632L40.9164 42.0467C40.6901 43.366 41.2223 44.6741 42.3053 45.461C43.388 46.2475 44.797 46.3496 45.9821 45.7268L49.7388 43.7517C49.9024 43.6655 50.0977 43.6655 50.2614 43.7517L54.0183 45.7268C54.5337 45.9977 55.0913 46.1315 55.646 46.1315C56.3668 46.1315 57.083 45.9055 57.6949 45.4608C58.7779 44.6739 59.3101 43.3656 59.0837 42.0465L58.3662 37.863C58.3349 37.6806 58.3953 37.4949 58.5277 37.366L61.5672 34.4032C62.5258 33.4689 62.8643 32.0974 62.4506 30.8244C62.0369 29.5514 60.9567 28.6411 59.6322 28.4487ZM59.5222 32.3056L56.4827 35.2684C55.6598 36.0705 55.2845 37.2256 55.4786 38.3583L56.1961 42.5418C56.2475 42.8412 56.0782 43.0144 55.9727 43.0912C55.8674 43.1679 55.6503 43.2757 55.3813 43.1339L51.6244 41.1588C51.1159 40.8914 50.5579 40.7576 49.9999 40.7576C49.4419 40.7576 48.8839 40.8914 48.3753 41.1588L44.6186 43.1339C44.3499 43.2755 44.1327 43.1677 44.0271 43.0912C43.9216 43.0144 43.7525 42.8414 43.8036 42.5418L44.5212 38.3583C44.7155 37.2256 44.3401 36.0705 43.5171 35.2682L40.4778 32.3058C40.2602 32.0937 40.2952 31.8541 40.3356 31.7301C40.3758 31.606 40.4883 31.3916 40.7889 31.3478L44.9891 30.7375C46.1266 30.5721 47.1092 29.8582 47.6178 28.8278L49.4962 25.0217C49.6306 24.7493 49.8694 24.7086 49.9997 24.7086C50.13 24.7086 50.3688 24.7493 50.5032 25.0217L52.3816 28.8278C52.8902 29.8582 53.8728 30.5723 55.0103 30.7375L59.2107 31.3478C59.5113 31.3916 59.6238 31.606 59.664 31.7301C59.7046 31.8541 59.7396 32.0937 59.5222 32.3056Z" fill="#4AD3EA"></path> </svg> 